<?xml version="1.0" encoding="UTF-8" standalone="no"?>
<svg width="142px" height="175px" viewBox="0 0 142 175" version="1.1" xmlns="http://www.w3.org/2000/svg" xmlns:xlink="http://www.w3.org/1999/xlink">
    <!-- Generator: Sketch 3.7 (28169) - http://www.bohemiancoding.com/sketch -->
    <title>filehappy</title>
    <desc>Created with Sketch.</desc>
    <defs></defs>
    <g id="Page-1" stroke="none" stroke-width="1" fill="none" fill-rule="evenodd">
        <g id="filehappy" transform="translate(0.000000, -1.000000)">
            <g id="Page-1">
                <g>
                    <g id="filehappy">
                        <path d="M133.333333,46.6666667 L100,13.3333333 L16.6666667,13.3333333 L16.6666667,163.333333 L133.333333,163.333333 L133.333333,46.6666667 L133.333333,46.6666667 L133.333333,46.6666667 Z M100,31 L115.666667,46.6666667 L100,46.6666667 L100,31 L100,31 L100,31 Z M120.833333,150.833333 L29.1666667,150.833333 L29.1666667,25.8333333 L91.6666667,25.8333333 L91.6666667,55 L120.833333,55 L120.833333,150.833333 L120.833333,150.833333 L120.833333,150.833333 Z" id="Shape" fill="#12100B" transform="translate(75.000000, 88.333333) rotate(14.000000) translate(-75.000000, -88.333333) "></path>
                        <g id="Group" transform="translate(73.333333, 97.500000) rotate(15.000000) translate(-73.333333, -97.500000) translate(40.000000, 73.333333)" fill="#000000">
                            <ellipse id="Oval" cx="12.1931035" cy="7.8227719" rx="7.93852428" ry="7.81590887"></ellipse>
                            <ellipse id="Oval" cx="53.1351872" cy="7.8226989" rx="7.93859845" ry="7.81598187"></ellipse>
                            <path d="M2.83055248,48.3082183 C2.40637746,48.3082913 1.97604748,48.2124278 1.57204302,48.0101141 C0.203188737,47.3245401 -0.342083788,45.676242 0.354171311,44.3284575 C2.73852429,39.7132083 7.16329256,35.7860885 13.1500927,32.9715845 C19.062069,30.1923446 26.049314,28.7232158 33.3564702,28.7232158 C40.6290693,28.7232158 47.5892473,30.1794948 53.48439,32.9347868 C59.450204,35.7230068 63.8784575,39.6177098 66.2904708,44.1977676 C66.9974045,45.5402223 66.4651835,47.1926821 65.1018168,47.8886966 C63.7382277,48.5847113 62.0599185,48.0606378 61.3529848,46.7184021 C59.5310345,43.2586991 55.8895068,40.120464 51.0992955,37.8816523 C45.9446793,35.4725788 39.8093437,34.1991196 33.3564702,34.1991196 C26.8734148,34.1991196 20.7147942,35.4833845 15.5465332,37.9130471 C10.7443827,40.1706226 7.10945496,43.3306151 5.31138303,46.8109801 C4.82068966,47.7610733 3.84375233,48.3081453 2.83055248,48.3082183 L2.83055248,48.3082183 L2.83055248,48.3082183 Z" id="Shape" transform="translate(33.327272, 38.515717) rotate(180.000000) translate(-33.327272, -38.515717) "></path>
                        </g>
                    </g>
                </g>
            </g>
        </g>
    </g>
</svg>