<?xml version="1.0" encoding="UTF-8" standalone="no"?>
<svg width="142px" height="174px" viewBox="0 0 142 174" version="1.1" xmlns="http://www.w3.org/2000/svg" xmlns:xlink="http://www.w3.org/1999/xlink">
    <!-- Generator: Sketch 3.7 (28169) - http://www.bohemiancoding.com/sketch -->
    <title>filesad</title>
    <desc>Created with Sketch.</desc>
    <defs></defs>
    <g id="Page-1" stroke="none" stroke-width="1" fill="none" fill-rule="evenodd">
        <g id="filesad">
            <g id="Page-1">
                <g>
                    <g id="filesad">
                        <path d="M133.07806,45.2176232 L99.7447262,11.8842899 L16.4113929,11.8842899 L16.4113929,161.88429 L133.07806,161.88429 L133.07806,45.2176232 L133.07806,45.2176232 L133.07806,45.2176232 Z M99.7447262,29.5509565 L115.411393,45.2176232 L99.7447262,45.2176232 L99.7447262,29.5509565 L99.7447262,29.5509565 L99.7447262,29.5509565 Z M120.57806,149.38429 L28.9113928,149.38429 L28.9113928,24.3842899 L91.4113928,24.3842899 L91.4113928,53.5509565 L120.57806,53.5509565 L120.57806,149.38429 L120.57806,149.38429 L120.57806,149.38429 Z" id="Shape" fill="#12100B" transform="translate(74.744726, 86.884290) rotate(14.000000) translate(-74.744726, -86.884290) "></path>
                        <g id="Group" transform="translate(73.533397, 95.667594) rotate(15.000000) translate(-73.533397, -95.667594) translate(40.033397, 71.167594)" fill="#000000">
                            <ellipse id="Oval" cx="12.1873114" cy="7.8257314" rx="7.93852428" ry="7.81590887"></ellipse>
                            <ellipse id="Oval" cx="53.1293951" cy="7.8256584" rx="7.93859845" ry="7.81598187"></ellipse>
                            <path d="M2.82476038,48.311177 C2.40058537,48.31125 1.97025538,48.2153865 1.56625093,48.0130728 C0.197396644,47.3274988 -0.347875881,45.6792007 0.348379217,44.3314162 C2.7327322,39.716167 7.15750047,35.7890472 13.1443006,32.9745432 C19.0562769,30.1953033 26.0435219,28.7261745 33.3506781,28.7261745 C40.6232772,28.7261745 47.5834552,30.1824535 53.4785979,32.9377455 C59.4444119,35.7259655 63.8726654,39.6206685 66.2846787,44.2007263 C66.9916124,45.543181 66.4593914,47.1956408 65.0960247,47.8916553 C63.7324356,48.58767 62.0541264,48.0635965 61.3471927,46.7213608 C59.5252424,43.2616578 55.8837147,40.1234227 51.0935034,37.884611 C45.9388872,35.4755375 39.8035516,34.2020783 33.3506781,34.2020783 C26.8676227,34.2020783 20.7090021,35.4863432 15.5407411,37.9160058 C10.7385906,40.1735813 7.10366287,43.3335738 5.30559093,46.8139388 C4.81489757,47.764032 3.83796023,48.311104 2.82476038,48.311177 L2.82476038,48.311177 L2.82476038,48.311177 Z" id="Shape"></path>
                        </g>
                    </g>
                </g>
            </g>
        </g>
    </g>
</svg>